<?xml version="1.0" encoding="UTF-8"?>
<!DOCTYPE svg PUBLIC "-//W3C//DTD SVG 1.1//EN" "http://www.w3.org/Graphics/SVG/1.1/DTD/svg11.dtd">
<!-- Creator: CorelDRAW 2017 -->
<svg xmlns="http://www.w3.org/2000/svg" xml:space="preserve" width="11in" height="8.5in" version="1.1" style="shape-rendering:geometricPrecision; text-rendering:geometricPrecision; image-rendering:optimizeQuality; fill-rule:evenodd; clip-rule:evenodd"
viewBox="0 0 11000 8500"
 xmlns:xlink="http://www.w3.org/1999/xlink">
 <defs>
  <style type="text/css">
   <![CDATA[
    .fil0 {fill:#FEFEFE}
   ]]>
  </style>
 </defs>
 <g id="Layer_x0020_1">
  <metadata id="CorelCorpID_0Corel-Layer"/>
  <g id="_1794271193536">
   <g>
    <g>
     <path class="fil0" d="M5821.93 2844.11c-0.01,0 -0.03,0 -0.04,0 -0.01,0 -0.01,0 -0.01,0 -0.01,0 -0.01,0 -0.02,0 -403.55,0.02 -768.88,163.53 -1033.37,427.9 -0.09,0.09 -0.19,0.17 -0.28,0.26 -0.1,0.1 -0.17,0.2 -0.27,0.3 -264.07,264.23 -427.48,629.07 -427.83,1032.09 0,0.43 -0.06,0.86 -0.06,1.29 0,0.42 0.06,0.82 0.06,1.23 0.28,343.76 119.7,669.47 334.14,929.09 23.14,28.02 57.58,44.24 93.92,44.24l2067.4 0c36.34,0 70.78,-16.22 93.92,-44.24 214.75,-259.99 334.28,-586.16 334.28,-930.31 0,-807.33 -654.5,-1461.83 -1461.83,-1461.83zm974.58 2192.75l-1949.29 0c-132.94,-176.89 -215.34,-386.37 -237.45,-609.1l359.37 0c67.28,0 121.82,-54.54 121.82,-121.82 0,-67.28 -54.54,-121.81 -121.82,-121.81l-359.37 0c24.32,-245 121.23,-468.62 268.91,-649.09l81.77 81.77c47.57,47.57 124.7,47.57 172.28,0 47.57,-47.57 47.57,-124.7 0,-172.28l-81.78 -81.78c180.48,-147.69 404.09,-244.61 649.1,-268.94l0 359.41c0,67.28 54.54,121.81 121.81,121.81 67.28,0 121.82,-54.54 121.82,-121.81l0 -359.42c245.01,24.32 468.63,121.24 649.12,268.93l-81.8 81.8c-47.57,47.57 -47.57,124.7 0,172.28 47.57,47.57 124.7,47.57 172.28,0l81.81 -81.81c147.7,180.48 244.64,404.12 268.97,649.13l-359.46 0c-67.28,0 -121.82,54.54 -121.82,121.81 0,67.28 54.54,121.82 121.82,121.82l359.46 0c-22.11,222.69 -104.56,432.17 -237.56,609.1z"/>
     <polygon class="fil0" points="6187.28,3860.45 5498.28,4205.08 5842.78,4549.59 "/>
     <path class="fil0" d="M6187.33 4671.4l-730.92 0c-67.28,0 -121.81,54.54 -121.81,121.82 0,67.28 54.54,121.82 121.81,121.82l730.92 0c67.28,0 121.82,-54.54 121.82,-121.82 0,-67.28 -54.54,-121.82 -121.82,-121.82z"/>
    </g>
   </g>
  </g>
  <g id="_1794281290032">
  </g>
  <g id="_1794281289936">
  </g>
  <g id="_1794281289648">
  </g>
  <g id="_1794281281840">
  </g>
  <g id="_1794281281456">
  </g>
  <g id="_1794281281968">
  </g>
  <g id="_1794281280368">
  </g>
  <g id="_1794281281328">
  </g>
  <g id="_1794281292592">
  </g>
  <g id="_1794281293296">
  </g>
  <g id="_1794281290704">
  </g>
  <g id="_1794281291984">
  </g>
  <g id="_1794281291888">
  </g>
  <g id="_1794281291760">
  </g>
  <g id="_1794281292016">
  </g>
 </g>
</svg>
