<?xml version="1.0" encoding="UTF-8"?>
<!DOCTYPE svg PUBLIC "-//W3C//DTD SVG 1.1//EN" "http://www.w3.org/Graphics/SVG/1.1/DTD/svg11.dtd">
<!-- Creator: CorelDRAW 2017 -->
<svg xmlns="http://www.w3.org/2000/svg" xml:space="preserve" width="11in" height="8.5in" version="1.1" style="shape-rendering:geometricPrecision; text-rendering:geometricPrecision; image-rendering:optimizeQuality; fill-rule:evenodd; clip-rule:evenodd"
viewBox="0 0 11000 8500"
 xmlns:xlink="http://www.w3.org/1999/xlink">
 <defs>
  <style type="text/css">
   <![CDATA[
    .fil0 {fill:#FEFEFE}
   ]]>
  </style>
 </defs>
 <g id="Layer_x0020_1">
  <metadata id="CorelCorpID_0Corel-Layer"/>
  <path class="fil0" d="M6938.28 3842.69l-359.06 -292.63 0 -468c0,-52.7 -42.88,-95.58 -95.58,-95.58l-225.92 0c-52.7,0 -95.58,42.88 -95.58,95.58l0 128.06 -479.77 -391.01c-34.7,-28.28 -80.44,-43.85 -128.79,-43.85 -48.16,0 -93.68,15.48 -128.2,43.61l-1255.9 1023.82c-57.06,46.5 -53.64,87 -46.52,107 7.1,19.96 29.96,53.45 103.26,53.45l171.97 0 0 1346.39c0,96.09 77.96,174.25 173.79,174.25l543.09 0c95.02,0 169.44,-76.55 169.44,-174.25l0 -552.13c0,-47.32 43.49,-90.41 91.24,-90.41l364.95 0c45.51,0 82.55,40.56 82.55,90.41l0 552.13c0,94.45 81.57,174.25 178.13,174.25l534.4 0c95.82,0 173.79,-78.17 173.79,-174.25l0 -1346.39 171.97 0c73.3,0 96.16,-33.49 103.26,-53.45 7.12,-20 10.54,-60.5 -46.52,-106.99z"/>
  <g id="_2466999432944">
  </g>
  <g id="_2466999432496">
  </g>
  <g id="_2466999432560">
  </g>
  <g id="_2466999433168">
  </g>
  <g id="_2466999496496">
  </g>
  <g id="_2466999495664">
  </g>
  <g id="_2466999495344">
  </g>
  <g id="_2466999495248">
  </g>
  <g id="_2466999495216">
  </g>
  <g id="_2466999495792">
  </g>
  <g id="_2466999493296">
  </g>
  <g id="_2466999494896">
  </g>
  <g id="_2466999493744">
  </g>
  <g id="_2466999494736">
  </g>
  <g id="_2466999494256">
  </g>
 </g>
</svg>
