<?xml version="1.0" encoding="UTF-8"?>
<!DOCTYPE svg PUBLIC "-//W3C//DTD SVG 1.1//EN" "http://www.w3.org/Graphics/SVG/1.1/DTD/svg11.dtd">
<!-- Creator: CorelDRAW 2017 -->
<svg xmlns="http://www.w3.org/2000/svg" xml:space="preserve" width="11in" height="8.5in" version="1.1" style="shape-rendering:geometricPrecision; text-rendering:geometricPrecision; image-rendering:optimizeQuality; fill-rule:evenodd; clip-rule:evenodd"
viewBox="0 0 11000 8500"
 xmlns:xlink="http://www.w3.org/1999/xlink">
 <defs>
  <style type="text/css">
   <![CDATA[
    .fil0 {fill:#FEFEFE}
   ]]>
  </style>
 </defs>
 <g id="Layer_x0020_1">
  <metadata id="CorelCorpID_0Corel-Layer"/>
  <g id="_2466999453904">
   <path class="fil0" d="M7297.05 3272.14l-1320.66 -1392.14c-23.69,-24.98 -56.57,-39.11 -91.04,-39.18 -34.46,-0.06 -67.41,14.04 -91.14,39.01l-1326.25 1392.15c-34.7,36.43 -44.35,89.97 -24.54,136.21 19.81,46.2 65.29,76.16 115.51,76.16l180.5 0 0 1423.3c0,190.09 154.17,344.28 344.32,344.28l683.22 0 0 -619.59c-181.91,-50.56 -316.16,-215.63 -316.16,-413.65l0 -334.74c-63.49,0 -114.95,-51.46 -114.95,-114.94 0,-63.46 51.46,-114.94 114.95,-114.94l186.68 0 0 -253.8c0,-47.59 38.6,-86.21 86.21,-86.21 47.61,0 86.21,38.62 86.21,86.21l0 253.8 172.42 0 0 -253.87c0,-47.59 38.61,-86.21 86.21,-86.21 47.59,0 86.21,38.61 86.21,86.21l0 253.87 158.27 0c63.49,0 114.95,51.47 114.95,114.94 0,63.48 -51.46,114.94 -114.95,114.94l-0.04 334.8c-0.06,198.02 -134.26,363.02 -316.11,413.54l0 619.64 683.34 -0c190.15,0 344.27,-154.19 344.27,-344.28l0 -1423.28 181.34 0c50.23,0 95.64,-29.91 115.45,-76.05 19.89,-46.2 10.34,-99.69 -24.22,-136.17z"/>
  </g>
  <g id="_2466999453104">
  </g>
  <g id="_2466999450064">
  </g>
  <g id="_2466999451632">
  </g>
  <g id="_2466999450320">
  </g>
  <g id="_2466999451856">
  </g>
  <g id="_2466999451120">
  </g>
  <g id="_2466999450768">
  </g>
  <g id="_2466999450480">
  </g>
  <g id="_2466999449648">
  </g>
  <g id="_2466999443728">
  </g>
  <g id="_2466999440560">
  </g>
  <g id="_2466999437776">
  </g>
  <g id="_2466999436336">
  </g>
  <g id="_2466999487312">
  </g>
  <g id="_2466999487920">
  </g>
 </g>
</svg>
