<?xml version="1.0" encoding="UTF-8"?>
<!DOCTYPE svg PUBLIC "-//W3C//DTD SVG 1.1//EN" "http://www.w3.org/Graphics/SVG/1.1/DTD/svg11.dtd">
<!-- Creator: CorelDRAW 2017 -->
<svg xmlns="http://www.w3.org/2000/svg" xml:space="preserve" width="11in" height="8.5in" version="1.1" style="shape-rendering:geometricPrecision; text-rendering:geometricPrecision; image-rendering:optimizeQuality; fill-rule:evenodd; clip-rule:evenodd"
viewBox="0 0 11000 8500"
 xmlns:xlink="http://www.w3.org/1999/xlink"
 enable-background="new 0 0 512 512">
 <defs>
  <style type="text/css">
   <![CDATA[
    .fil0 {fill:#FEFEFE}
   ]]>
  </style>
 </defs>
 <g id="Layer_x0020_1">
  <metadata id="CorelCorpID_0Corel-Layer"/>
  <g id="_1828824751408">
   <g>
    <g>
     <path class="fil0" d="M4800.82 2510.24l-175.22 -972.07c-7.7,-43.92 -46.18,-76.06 -91.01,-76.06l-1093.41 0c-44.82,0 -82.85,32.15 -91,76.06l-177.48 984.74c-10.87,81.5 59.31,110.93 91,108.66l631.59 0 0 151.22 -184.27 0c-51.16,0 -92.36,41.2 -92.36,92.36 0,51.16 41.2,92.36 92.36,92.36l566.85 0c51.17,0 92.37,-41.2 92.37,-92.36 0,-51.16 -41.2,-92.37 -92.37,-92.37l-197.85 0 0 -151.22 632.05 0c0.45,0 0.91,0 0.91,0 55.24,0.45 108.21,-50.71 87.83,-121.34zm-905.52 -63.39l-521.12 0 65.65 -364.92 455.47 0 0 364.92zm0 -550.1l-422.42 0 45.28 -249.92 377.15 0 0 249.92zm185.18 -249.92l377.15 0 45.28 249.92 -421.97 0 0 -249.92 -0.46 0zm-0.45 800.02l0 -364.92 455.48 0 65.65 364.92 -521.13 0z"/>
     <path class="fil0" d="M3133.77 1278.29c40.75,-35.77 93.72,-53.43 147.6,-49.8 54.33,3.62 103.68,28.52 139.45,69.27 33.5,38.48 91.91,42.56 130.39,9.06 38.49,-33.5 42.56,-91.91 9.06,-130.39 -68.37,-78.33 -162.54,-125.41 -266.22,-132.2 -103.23,-7.24 -203.74,26.71 -281.61,94.63 -161.18,140.81 -178.39,386.65 -37.58,548.29 18.11,20.83 43.92,31.69 69.72,31.69 21.74,0 43.02,-7.7 60.67,-22.64 38.48,-33.5 42.56,-91.91 9.06,-130.39 -74.25,-84.67 -65.2,-213.7 19.46,-287.5l0 0z"/>
     <path class="fil0" d="M2829.97 1070.47c18.11,20.83 43.92,31.69 69.72,31.69 21.73,0 43.01,-7.7 60.67,-22.64 38.48,-33.5 42.56,-91.91 9.06,-130.39l-21.73 -25.35c-33.5,-38.48 -91.91,-42.56 -130.39,-9.06 -38.48,33.5 -42.56,91.91 -9.06,130.39l21.73 25.35z"/>
     <path class="fil0" d="M3674.81 1155.14c21.73,0 43.01,-7.7 60.67,-22.64l25.35 -22.19c38.48,-33.5 42.56,-91.91 9.06,-130.39 -33.5,-38.48 -91.91,-42.56 -130.39,-9.06l-25.35 22.19c-38.48,33.5 -42.56,91.91 -9.06,130.39 18.56,21.28 43.92,31.69 69.72,31.69z"/>
     <path class="fil0" d="M2786.06 1716.1l-25.35 22.19c-38.48,33.5 -42.56,91.91 -9.06,130.39 18.11,20.83 43.92,31.7 69.72,31.7 21.73,0 43.01,-7.7 60.67,-22.64l25.35 -22.19c38.48,-33.5 42.56,-91.91 9.06,-130.39 -33.5,-38.94 -91.91,-43.02 -130.39,-9.06z"/>
     <path class="fil0" d="M3292.24 967.7c2.26,0 4.07,0 6.34,0 47.99,0 88.74,-37.58 91.91,-86.02l2.26 -33.05c3.62,-50.71 -34.86,-95.08 -86.02,-98.25 -51.16,-3.17 -95.08,34.86 -98.25,86.02l-2.26 33.5c-3.62,50.26 34.86,94.63 86.02,97.8l-0 0z"/>
     <path class="fil0" d="M2805.07 1392.83c3.62,-50.71 -34.86,-95.08 -86.02,-98.25l-33.5 -2.26c-51.61,-3.62 -95.08,34.86 -98.7,86.02 -3.62,50.71 34.86,95.08 86.02,98.25l33.5 2.26c2.26,0 4.07,0.45 6.34,0.45 48.44,-0.45 88.74,-37.58 92.36,-86.48l0 0z"/>
    </g>
   </g>
  </g>
 </g>
</svg>
